<svg id="Layer_1" data-name="Layer 1" xmlns="http://www.w3.org/2000/svg" viewBox="0 0 77.41 14.75"><defs><style>.cls-1{fill:#efa747;}.cls-1,.cls-2{stroke:#1c1c1c;stroke-miterlimit:10;stroke-width:0.5px;}.cls-2{fill:#1c1c1c;}</style></defs><title>logo!</title><path class="cls-1" d="M74,8.7a5.69,5.69,0,0,1,2.42.4,1,1,0,0,1,.68,1,12.09,12.09,0,0,1-.86,5.22,4,4,0,0,1-.61,1.14c-.5.83-.77,1-.74,1.4s.34.37.77,1.1a2.75,2.75,0,0,1,.47,1.39,2.7,2.7,0,0,1-.11.94,2.35,2.35,0,0,1-2.92,1.57h0A2.45,2.45,0,0,1,71.51,20a3.09,3.09,0,0,1,.39-.87c.43-.76.82-.88.89-1.28s-.39-.82-.86-1.45c-.9-1.19-1.31-2.42-1.4-4.87V10.16a1,1,0,0,1,.76-1.07,5.44,5.44,0,0,1,.9-.25c.19,0,.34-.05.45-.07C73.22,8.7,73.74,8.73,74,8.7Z" transform="translate(0 -8.44)"/><path class="cls-2" d="M10.61,22.39h-.8a9.57,9.57,0,0,1-.13-2c-.44.85-1.42,2.14-4,2.14-3.56,0-5.43-2.72-5.43-6.28,0-3.72,2-6.51,5.61-6.51,2.69,0,4.47,1.41,4.86,3.7h-1a3.72,3.72,0,0,0-3.9-2.79c-3.11,0-4.53,2.42-4.53,5.57,0,2.85,1.37,5.43,4.41,5.43s4-2,4-4.79v-.14h-4v-.89h5Z" transform="translate(0 -8.44)"/><path class="cls-2" d="M18.54,20.7a10.6,10.6,0,0,0,.13,1.69h-.85A4.89,4.89,0,0,1,17.66,21a3,3,0,0,1-2.92,1.59,2.66,2.66,0,0,1-3-2.28c0-.13,0-.26,0-.39,0-2,1.52-2.85,4.18-2.85h1.7v-.91c0-.89-.27-2.08-2.3-2.08-1.8,0-2.06,1-2.26,1.68h-.89c.11-1,.71-2.5,3.17-2.5,2,0,3.16.86,3.16,2.82Zm-.87-2.84H15.93c-2,0-3.2.51-3.2,2a1.85,1.85,0,0,0,1.82,1.89,1.08,1.08,0,0,0,.18,0c2.55,0,2.9-1.69,2.9-3.61Z" transform="translate(0 -8.44)"/><path class="cls-2" d="M20.17,15.79V13.5h.88c0,.3.05,1.07,0,1.58a2.79,2.79,0,0,1,2.68-1.83A2.55,2.55,0,0,1,26.31,15a3,3,0,0,1,2.9-1.77c1.37,0,2.79.79,2.79,3.26v5.85h-.88V16.65c0-1.19-.42-2.49-2.08-2.49s-2.52,1.38-2.52,3.09v5.12h-.87v-5.7c0-1.3-.39-2.51-2-2.51s-2.56,1.53-2.56,3.34v4.89H20.2Z" transform="translate(0 -8.44)"/><path class="cls-2" d="M34,18.05c0,2.3,1.17,3.72,2.88,3.72a2.51,2.51,0,0,0,2.56-1.67h.91a3.41,3.41,0,0,1-3.5,2.51c-2.74,0-3.74-2.36-3.74-4.59,0-2.55,1.24-4.77,3.84-4.77s3.61,2.37,3.61,4V18Zm5.64-.8c0-1.76-1-3.15-2.72-3.15s-2.67,1.3-2.87,3.15Z" transform="translate(0 -8.44)"/><path class="cls-2" d="M55.89,15.71c0,3.6-1.92,6.87-6,6.87-3.71,0-5.87-3-5.87-6.78S46.11,9,50,9C53.65,9,55.89,11.87,55.89,15.71Zm-10.77,0c0,3,1.67,5.89,4.84,5.89,3.41,0,4.84-2.79,4.84-5.91S53.18,10,50,10C46.61,10,45.12,12.77,45.12,15.75Z" transform="translate(0 -8.44)"/><path class="cls-2" d="M57.7,22.39V9.25h1.51c2,3.17,6.87,10.53,7.7,12h0c-.12-1.9-.1-3.84-.1-6v-6h1V22.39h-1.4c-1.89-3.05-6.79-10.71-7.73-12.14h0c.09,1.73.08,3.65.08,6v6.12Z" transform="translate(0 -8.44)"/></svg>