<svg id="Layer_1" data-name="Layer 1" xmlns="http://www.w3.org/2000/svg" viewBox="0 0 39.59 84.67"><defs><style>.cls-1{fill:#efa747;}</style></defs><title>logo</title><path class="cls-1" d="M157.66,10.56A33.55,33.55,0,0,1,172.08,13a6,6,0,0,1,4,5.89c.31,10.69-.75,21.12-5.12,31-2.59,5.86-3.54,6.87-3.54,6.87-3,4.93-4.65,6-4.42,8.25s2,2.16,4.58,6.47a17.78,17.78,0,0,1,2.81,8.26,16,16,0,0,1-.66,5.56c-2.24,7.46-9.71,11.5-17.66,9.3-6.74-1.87-11.42-10-9.65-16.77a22.83,22.83,0,0,1,2.27-5.23c2.61-4.52,4.87-5.2,5.31-7.59.54-2.91-2.26-4.88-5.09-8.55-5.42-7.07-7.79-14.44-8.33-29-.1-2.74,0-5.49,0-8.24-.11-3.3,1.52-5.3,4.46-6.45a32.9,32.9,0,0,1,8-1.87A65.39,65.39,0,0,1,157.66,10.56Z" transform="translate(-136.54 -10.51)"/></svg>