<svg id="Layer_1" data-name="Layer 1" xmlns="http://www.w3.org/2000/svg" viewBox="0 0 77.12 14.27"><defs><style>.cls-1{fill:#efa747;}.cls-2{fill:#1c1c1c;stroke:#1c1c1c;stroke-miterlimit:10;stroke-width:0.5px;}</style></defs><title>logo!</title><path class="cls-1" d="M74,.26a5.71,5.71,0,0,1,2.42.4,1,1,0,0,1,.68,1,12.12,12.12,0,0,1-.86,5.22A4,4,0,0,1,75.63,8c-.5.83-.77,1-.74,1.4s.34.37.77,1.1a2.75,2.75,0,0,1,.47,1.39,2.7,2.7,0,0,1-.11.94,2.35,2.35,0,0,1-2.92,1.57h0a2.45,2.45,0,0,1-1.59-2.86,3.09,3.09,0,0,1,.39-.87c.43-.76.82-.88.89-1.28S72.4,8.59,71.93,8c-.9-1.19-1.31-2.42-1.4-4.87V1.72A1,1,0,0,1,71.29.65a5.44,5.44,0,0,1,.9-.25,2.13,2.13,0,0,0,.45-.07C73.22.26,73.74.29,74,.26Z" transform="translate(0 -0.25)"/><path class="cls-2" d="M10.61,14h-.8a9.57,9.57,0,0,1-.13-2c-.44.85-1.42,2.14-4,2.14C2.12,14.09.25,11.37.25,7.81c0-3.72,2-6.51,5.61-6.51,2.69,0,4.47,1.41,4.86,3.7h-1a3.72,3.72,0,0,0-3.9-2.79c-3.11,0-4.53,2.42-4.53,5.57,0,2.85,1.37,5.43,4.41,5.43s4-2,4-4.79V8.28h-4V7.39h5Z" transform="translate(0 -0.25)"/><path class="cls-2" d="M18.54,12.26A10.6,10.6,0,0,0,18.67,14h-.85a5,5,0,0,1-.16-1.39,3,3,0,0,1-2.92,1.59,2.66,2.66,0,0,1-3-2.27h0v-.39c0-2,1.52-2.85,4.18-2.85h1.7V7.72c0-.89-.27-2.08-2.3-2.08a2,2,0,0,0-2.26,1.68h-.89c.11-1,.71-2.5,3.17-2.5,2,0,3.16.86,3.16,2.82Zm-.87-2.84H15.93c-2,0-3.2.51-3.2,2a1.85,1.85,0,0,0,1.81,1.89h.19c2.55,0,2.9-1.69,2.9-3.61Z" transform="translate(0 -0.25)"/><path class="cls-2" d="M20.17,7.35V5.06h.88c0,.3.05,1.07,0,1.58a2.79,2.79,0,0,1,2.68-1.83,2.55,2.55,0,0,1,2.58,1.75,3,3,0,0,1,2.9-1.77c1.37,0,2.79.79,2.79,3.26V13.9h-.88V8.21C31.12,7,30.7,5.72,29,5.72S26.52,7.1,26.52,8.81v5.12h-.87V8.23c0-1.3-.39-2.51-2-2.51s-2.56,1.53-2.56,3.34V14H20.2Z" transform="translate(0 -0.25)"/><path class="cls-2" d="M34,9.61c0,2.3,1.17,3.72,2.88,3.72a2.51,2.51,0,0,0,2.56-1.67h.91a3.41,3.41,0,0,1-3.5,2.51c-2.74,0-3.74-2.36-3.74-4.59C33.11,7,34.35,4.81,37,4.81s3.61,2.37,3.61,4v.75Zm5.64-.8c0-1.76-1-3.15-2.72-3.15S34.25,7,34.05,8.81Z" transform="translate(0 -0.25)"/><path class="cls-2" d="M55.89,7.27c0,3.6-1.92,6.87-6,6.87-3.71,0-5.87-3-5.87-6.78s2.09-6.8,6-6.8C53.65.56,55.89,3.43,55.89,7.27Zm-10.77,0c0,3,1.67,5.89,4.84,5.89,3.41,0,4.84-2.79,4.84-5.91S53.18,1.56,50,1.56c-3.39,0-4.88,2.77-4.88,5.75Z" transform="translate(0 -0.25)"/><path class="cls-2" d="M57.7,14V.81h1.51c2,3.17,6.87,10.53,7.7,12h0c-.12-1.9-.1-3.84-.1-6v-6h1V14h-1.4c-1.89-3-6.79-10.71-7.73-12.14h0c.09,1.73.08,3.65.08,6v6.12Z" transform="translate(0 -0.25)"/></svg>