<svg id="Layer_1" data-name="Layer 1" xmlns="http://www.w3.org/2000/svg" viewBox="0 0 39.49 84.65"><defs><style>.cls-1{fill:#efa747;}</style></defs><title>pawn-100100</title><path class="cls-1" d="M18.5,84.64a33.9,33.9,0,0,1-14.4-2.4,6,6,0,0,1-4-5.9c-.3-10.7.8-21.1,5.1-31,2.6-5.8,3.5-6.8,3.6-6.8,3-4.9,4.6-6,4.4-8.3s-2-2.2-4.6-6.5a18.05,18.05,0,0,1-2.8-8.3,16,16,0,0,1,.7-5.6c2.2-7.3,9.6-11.4,17.6-9.2,6.7,1.9,11.4,10,9.6,16.8a18.24,18.24,0,0,1-2.3,5.2c-2.6,4.5-4.9,5.2-5.3,7.6-.5,2.9,2.3,4.9,5.1,8.6,5.4,7.1,7.8,14.4,8.3,29,.1,2.7,0,5.5,0,8.2.1,3.3-1.5,5.3-4.5,6.4a32.14,32.14,0,0,1-8,1.9A59.34,59.34,0,0,1,18.5,84.64Z" transform="translate(-0.06 -0.04)"/></svg>