<svg id="Layer_1" data-name="Layer 1" xmlns="http://www.w3.org/2000/svg" viewBox="0 0 19.63 41.5"><defs><style>.cls-1{fill:#efa747;stroke:#1c1c1c;stroke-miterlimit:10;stroke-width:0.5px;}</style></defs><title>pawn_upsidedown_line3050</title><path class="cls-1" d="M13,5a16.36,16.36,0,0,1,7,1.16A2.93,2.93,0,0,1,22,9.05a34.65,34.65,0,0,1-2.47,15c-1.26,2.81-1.7,3.3-1.75,3.3-1.45,2.37-2.22,2.9-2.13,4s1,1.06,2.23,3.14a8.79,8.79,0,0,1,1.36,4,7.73,7.73,0,0,1-.34,2.72,6.74,6.74,0,0,1-8.53,4.45,7.05,7.05,0,0,1-4.65-8.13,9,9,0,0,1,1.12-2.52c1.26-2.18,2.37-2.52,2.56-3.68C9.6,30,8.24,29,6.88,27.21c-2.61-3.44-3.77-7-4-14,0-1.3,0-2.66,0-4A3,3,0,0,1,5,6.09a15.18,15.18,0,0,1,2.59-.72c.53-.1,1-.16,1.29-.2C10.66,5,12.18,5.08,13,5Z" transform="translate(-2.59 -4.75)"/></svg>