<?xml version="1.0" encoding="utf-8"?>
<!-- Generator: Adobe Illustrator 23.0.1, SVG Export Plug-In . SVG Version: 6.00 Build 0)  -->
<svg version="1.1" id="Layer_1" xmlns="http://www.w3.org/2000/svg" xmlns:xlink="http://www.w3.org/1999/xlink" x="0px" y="0px"
	 viewBox="0 0 39.6 84.7" style="enable-background:new 0 0 39.6 84.7;" xml:space="preserve">
<style type="text/css">
	.st0{fill:#EFA747;}
	.st1{display:none;}
	.st2{display:inline;}
	.st3{font-family:'ArialMT';}
	.st4{font-size:27px;}
</style>
<g>
	<title>pawn-100100</title>
	<path class="st0" d="M18.5,84.6c-4.9,0.3-9.8-0.6-14.4-2.4c-2.5-0.9-4.1-3.3-4-5.9c-0.3-10.7,0.8-21.1,5.1-31
		c2.6-5.8,3.5-6.8,3.6-6.8c3-4.9,4.6-6,4.4-8.3s-2-2.2-4.6-6.5c-0.9-1.6-2.6-4.4-2.8-8.3c-0.1-1.8,0.1-3.6,0.7-5.6
		c2.2-7.3,9.6-11.4,17.6-9.2c6.7,1.9,11.4,10,9.6,16.8c-0.5,2.1-1.6,4.1-2.3,5.2c-2.6,4.5-4.9,5.2-5.3,7.6c-0.5,2.9,2.3,4.9,5.1,8.6
		c5.4,7.1,7.8,14.4,8.3,29c0.1,2.7,0,5.5,0,8.2c0.1,3.3-1.5,5.3-4.5,6.4c-2.6,1-5.3,1.6-8,1.9C24.3,84.6,21.4,84.7,18.5,84.6z"/>
</g>
<g class="st1">
	<text transform="matrix(1 0 0 1 10.5955 80.1278)" class="st2 st3 st4">O</text>
</g>
</svg>
