<?xml version="1.0" encoding="utf-8"?>
<!-- Generator: Adobe Illustrator 23.0.1, SVG Export Plug-In . SVG Version: 6.00 Build 0)  -->
<svg version="1.1" id="Layer_1" xmlns="http://www.w3.org/2000/svg" xmlns:xlink="http://www.w3.org/1999/xlink" x="0px" y="0px"
	 viewBox="0 0 39.6 84.7" style="enable-background:new 0 0 39.6 84.7;" xml:space="preserve">
<style type="text/css">
	.st0{fill:#EFA747;}
</style>
<title>pawn-100100</title>
<path class="st0" d="M19,84.1c-4.9,0.3-9.8-0.6-14.4-2.4c-2.5-0.9-4.1-3.3-4-5.9c-0.3-10.7,0.8-21.1,5.1-31C8.3,39,9.2,38,9.3,38
	c3-4.9,4.6-6,4.4-8.3c-0.2-2.3-2-2.2-4.6-6.5c-0.9-1.6-2.6-4.4-2.8-8.3c-0.1-1.8,0.1-3.6,0.7-5.6C9.2,2,16.6-2.1,24.6,0.1
	c6.7,1.9,11.4,10,9.6,16.8c-0.5,2.1-1.6,4.1-2.3,5.2c-2.6,4.5-4.9,5.2-5.3,7.6c-0.5,2.9,2.3,4.9,5.1,8.6c5.4,7.1,7.8,14.4,8.3,29
	c0.1,2.7,0,5.5,0,8.2c0.1,3.3-1.5,5.3-4.5,6.4c-2.6,1-5.3,1.6-8,1.9C24.8,84.1,21.9,84.2,19,84.1z"/>
</svg>