<?xml version="1.0" encoding="utf-8"?>
<!-- Generator: Adobe Illustrator 23.0.1, SVG Export Plug-In . SVG Version: 6.00 Build 0)  -->
<svg version="1.1" id="Layer_1_xA0_Image_1_" xmlns="http://www.w3.org/2000/svg" xmlns:xlink="http://www.w3.org/1999/xlink"
	 x="0px" y="0px" viewBox="0 0 512 512" style="enable-background:new 0 0 512 512;" xml:space="preserve">
<style type="text/css">
	.st0{fill:none;stroke:#000000;stroke-width:4.5;stroke-miterlimit:10;}
</style>
<path class="st0" d="M119.72,255.65c0-41.15-0.06-82.3,0.02-123.46c0.05-23.27,13.91-41.06,35.5-45.64
	c3.71-0.79,7.61-0.93,11.42-0.94c45.65-0.06,91.3-0.09,136.95,0.09c2.45,0.01,5.61,1.25,7.22,3.03
	c26.25,29.05,52.34,58.23,78.29,87.54c1.77,1.99,3.02,5.22,3.02,7.88c0.16,65.31,0.21,130.62,0.08,195.93
	c-0.05,27.09-18.74,46.09-45.76,46.19c-60.31,0.22-120.62,0.22-180.93,0c-27.24-0.1-45.79-19.3-45.83-46.67
	c-0.05-41.32-0.01-82.64-0.01-123.96C119.71,255.65,119.72,255.65,119.72,255.65z M306.13,86.07c0,16.86-0.3,76.56-0.3,92.31
	c14.27,0,69.69,0.05,84.78,0.05"/>
<path d="M317.22,356.43c-41.37,0-82.59,0-124.3,0c-0.64-12.32,2.14-23.57,10.68-32.18c5.62-5.66,12.9-9.75,19.71-14.12
	c4.46-2.86,9.58-4.67,14.08-7.48c5.93-3.7,5.93-7.58,0.47-11.6c-21.95-16.17-22.32-55.8-0.68-72.46c11.75-9.05,26.25-8.53,37.5,1.34
	c20.75,18.21,18.86,56-3.61,72.01c-3.39,2.42-3.39,7.05,0.47,9.79c3.37,2.39,7.17,4.17,10.83,6.13c4.68,2.52,9.57,4.69,14.09,7.48
	c14.42,8.93,20.68,22.44,21.22,38.98C317.67,354.94,317.41,355.57,317.22,356.43z"/>
</svg>
