<svg id="Layer_1_Image" data-name="Layer 1 Image" xmlns="http://www.w3.org/2000/svg" viewBox="0 0 277.12 345.37"><defs><style>.cls-1{fill:none;stroke:#000;stroke-miterlimit:10;stroke-width:4.5px;}</style></defs><title>personalPage</title><path class="cls-1" d="M119.72,255.65q0-61.72,0-123.46c.05-23.27,13.91-41.06,35.5-45.64a55.86,55.86,0,0,1,11.42-.94q68.47-.09,137,.09a10.81,10.81,0,0,1,7.22,3q39.38,43.58,78.29,87.54a12.9,12.9,0,0,1,3,7.88q.24,98,.08,195.93c-.05,27.09-18.74,46.09-45.76,46.19q-90.46.33-180.93,0c-27.24-.1-45.79-19.3-45.83-46.67q-.08-62,0-124ZM306.13,86.07c0,16.86-.3,76.56-.3,92.31l84.78.05" transform="translate(-117.42 -83.31)"/><path d="M317.22,356.43H192.92c-.64-12.32,2.14-23.57,10.68-32.18,5.62-5.66,12.9-9.75,19.71-14.12,4.46-2.86,9.58-4.67,14.08-7.48,5.93-3.7,5.93-7.58.47-11.6-22-16.17-22.32-55.8-.68-72.46,11.75-9.05,26.25-8.53,37.5,1.34,20.75,18.21,18.86,56-3.61,72-3.39,2.42-3.39,7.05.47,9.79a99.93,99.93,0,0,0,10.83,6.13c4.68,2.52,9.57,4.69,14.09,7.48,14.42,8.93,20.68,22.44,21.22,39A12.37,12.37,0,0,1,317.22,356.43Z" transform="translate(-117.42 -83.31)"/></svg>