<svg id="Layer_1" data-name="Layer 1" xmlns="http://www.w3.org/2000/svg" viewBox="0 0 31.68 36.56"><defs><style>.cls-1{stroke:#000;stroke-miterlimit:10;stroke-width:0.5px;}</style></defs><title>personal-smal-5050</title><path class="cls-1" d="M40.52,43.62H9.42a10.29,10.29,0,0,1,2.65-8A27.7,27.7,0,0,1,17,32c1.1-.7,2.4-1.15,3.5-1.85,1.5-1,1.5-1.9.1-2.9-5.5-4.05-5.6-13.95-.15-18.1a7,7,0,0,1,9.35.35c5.2,4.55,4.7,14-.9,18A1.45,1.45,0,0,0,29,30a30,30,0,0,0,2.7,1.55c1.15.65,2.4,1.15,3.5,1.85,3.6,2.25,5.15,5.6,5.3,9.75C40.62,43.27,40.57,43.42,40.52,43.62Z" transform="translate(-9.15 -7.31)"/></svg>