<svg id="Layer_1_Image" data-name="Layer 1 Image" xmlns="http://www.w3.org/2000/svg" viewBox="0 0 136.87 170.88"><defs><style>.cls-1{fill:none;}.cls-1,.cls-2{stroke:#000;stroke-miterlimit:10;stroke-width:0.5px;}</style></defs><title>personalPage_icon</title><path class="cls-1" d="M187.9,255.8V194.1c0-11.6,7-20.5,17.8-22.8a27.46,27.46,0,0,1,5.7-.5h68.5a5.33,5.33,0,0,1,3.6,1.5c13.1,14.5,26.2,29.1,39.1,43.8a6.32,6.32,0,0,1,1.5,3.9c.1,32.7.1,65.3,0,98,0,13.5-9.4,23-22.9,23.1-30.2.1-60.3.1-90.5,0-13.6-.1-22.9-9.6-22.9-23.3,0-20.7,0-41.3.1-62ZM281.1,171c0,8.4-.1,38.3-.1,46.2h42.4" transform="translate(-187.55 -170.55)"/><path class="cls-2" d="M286.6,306.2H224.4c-.3-6.2,1.1-11.8,5.3-16.1,2.8-2.8,6.4-4.9,9.9-7.1,2.2-1.4,4.8-2.3,7-3.7,3-1.9,3-3.8.2-5.8-11-8.1-11.2-27.9-.3-36.2,5.9-4.5,13.1-4.3,18.7.7,10.4,9.1,9.4,28-1.8,36-1.7,1.2-1.7,3.5.2,4.9A57.93,57.93,0,0,0,269,282c2.3,1.3,4.8,2.3,7,3.7,7.2,4.5,10.3,11.2,10.6,19.5C286.8,305.5,286.7,305.8,286.6,306.2Z" transform="translate(-187.55 -170.55)"/></svg>