<?xml version="1.0" encoding="utf-8"?>
<!-- Generator: Adobe Illustrator 23.0.1, SVG Export Plug-In . SVG Version: 6.00 Build 0)  -->
<svg version="1.1" id="Layer_1" xmlns="http://www.w3.org/2000/svg" xmlns:xlink="http://www.w3.org/1999/xlink" x="0px" y="0px"
	 viewBox="0 0 40.7 85.7" style="enable-background:new 0 0 40.7 85.7;" xml:space="preserve">
<style type="text/css">
	.st0{fill:#EFA747;}
</style>
<title>pion-100100</title>
<path class="st0" d="M19,85.1c-4.9,0.3-9.8-0.6-14.4-2.4c-2.5-0.9-4.1-3.3-4-5.9c-0.3-10.7,0.8-21.1,5.1-31c1-2.3,2.3-4.6,3.5-6.9
	c2.7-5,2.8-9.9-0.2-14.7c-2.7-4.4-3.6-8.8-2.2-13.8c2.2-7.5,9.7-11.5,17.7-9.3c6.7,1.9,11.4,10,9.6,16.8c-0.5,1.9-1.2,3.6-2.3,5.2
	c-3.6,5.3-3.5,10.6-0.2,16.1c5.2,8.8,8.1,18.8,8.3,29c0.1,2.7,0,5.5,0,8.2c0.1,3.3-1.5,5.3-4.5,6.4c-2.6,1-5.3,1.6-8,1.9
	C24.8,85.1,21.9,85.2,19,85.1z"/>
</svg>
