<svg id="Layer_1" data-name="Layer 1" xmlns="http://www.w3.org/2000/svg" viewBox="0 0 103.27 103.27"><defs><style>.cls-1{fill:#efa747;}.cls-2{fill:#fdfefd;stroke:#1c1c1c;stroke-miterlimit:10;stroke-width:0.5px;}.cls-3{fill:#1c1c1c;}</style></defs><title>spelwijzer_icon</title><circle class="cls-1" cx="51.64" cy="51.64" r="51.64"/><path class="cls-2" d="M311.8,363.06a31.43,31.43,0,0,1,29.43,42.45c-6.45,17.22-25.48,25.17-42.54,17.71a6.3,6.3,0,0,0-4.37-.39c-4,1-8.07,1.93-12.11,2.85-2.09.47-2.13.43-1.64-1.71.93-4,1.83-8.09,2.84-12.11a5.93,5.93,0,0,0-.34-4.18c-5.7-12.87-2.95-26.77,7.33-36.38A30.17,30.17,0,0,1,311.8,363.06Zm-1.52,38.88a5.08,5.08,0,0,1,.78,0c1.81.32,2.63-.21,2.38-2.23a5.29,5.29,0,0,1,1.88-4.66c1.37-1.26,2.7-2.58,3.95-4a9,9,0,0,0-1-12.79c-5.41-4.35-14.4-3.05-17.59,3.33-.61,1.21-1.32,2.66-.93,3.76.3.82,2,.19,3.09.31.26,0,.53,0,.79,0,1.46.18,2.47,0,3.08-1.75.82-2.28,3.52-3,5.95-2,1.91.82,2.57,2.86,2,5.18-.65,2.6-2.85,3.84-4.52,5.49a7.85,7.85,0,0,0-2.71,6.55C307.62,401.93,307.47,401.94,310.28,401.94Z" transform="translate(-260.06 -344.36)"/><path class="cls-3" d="M310.28,401.94c-2.81,0-2.66,0-2.86-2.74a7.85,7.85,0,0,1,2.71-6.55c1.67-1.65,3.88-2.89,4.52-5.49.57-2.32-.08-4.36-2-5.18-2.43-1-5.13-.31-5.95,2-.61,1.71-1.61,1.93-3.07,1.75-.27,0-.53,0-.79,0-1.08-.12-2.8.51-3.09-.31-.4-1.1.32-2.55.92-3.76,3.19-6.38,12.18-7.68,17.6-3.33a9,9,0,0,1,1,12.79c-1.26,1.38-2.59,2.7-4,4a5.34,5.34,0,0,0-1.88,4.66c.25,2-.57,2.55-2.37,2.23A5.21,5.21,0,0,0,310.28,401.94Z" transform="translate(-260.06 -344.36)"/><circle class="cls-3" cx="50.49" cy="64.38" r="4.28"/></svg>