<?xml version="1.0" encoding="utf-8"?>
<!-- Generator: Adobe Illustrator 23.0.1, SVG Export Plug-In . SVG Version: 6.00 Build 0)  -->
<svg version="1.1" id="Layer_1" xmlns="http://www.w3.org/2000/svg" xmlns:xlink="http://www.w3.org/1999/xlink" x="0px" y="0px"
	 viewBox="0 0 612 792" style="enable-background:new 0 0 612 792;" xml:space="preserve">
<style type="text/css">
	.st0{fill:#EFA747;}
	.st1{fill:#FDFEFD;stroke:#1C1C1C;stroke-width:4.5;stroke-miterlimit:10;}
	.st2{fill:#1C1C1C;}
	.st3{fill:#1C1C1C;stroke:#1C1C1C;stroke-miterlimit:10;}
</style>
<circle class="st0" cx="311.7" cy="396" r="295.07"/>
<path class="st1" d="M312.25,207.77c125.36,0.02,212.12,125.15,168.18,242.59c-36.82,98.41-145.56,143.82-243.1,101.17
	c-8.49-3.71-16.06-4.48-24.95-2.21c-22.96,5.87-46.11,11.01-69.22,16.26c-11.93,2.71-12.12,2.5-9.33-9.74
	c5.27-23.11,10.45-46.24,16.24-69.22c2.13-8.46,1.66-15.74-1.95-23.89c-32.58-73.55-16.88-152.96,41.84-207.85
	C224.12,222.93,265.41,207.68,312.25,207.77z M303.56,429.92c1.51,0,3.05-0.22,4.51,0.04c10.29,1.81,14.98-1.21,13.58-12.78
	c-1.24-10.3,2.81-19.32,10.74-26.61c7.83-7.21,15.42-14.72,22.58-22.6c18.76-20.63,16.38-55.37-5.76-73.14
	c-30.96-24.85-82.31-17.39-100.55,19.05c-3.46,6.91-7.54,15.19-5.28,21.49c1.69,4.7,11.51,1.08,17.65,1.8
	c1.49,0.17,3.03-0.13,4.51,0.05c8.35,1.01,14.08-0.26,17.59-10.02c4.69-13.05,20.12-17.27,33.99-11.31
	c10.95,4.71,14.69,16.33,11.42,29.57c-3.68,14.87-16.29,21.97-25.84,31.4c-10.84,10.7-16.56,21.89-15.46,37.42
	C288.36,429.86,287.5,429.92,303.56,429.92z"/>
<path class="st2" d="M303.56,429.92c-16.06,0-15.2-0.06-16.3-15.64c-1.1-15.53,4.62-26.72,15.46-37.42
	c9.55-9.43,22.16-16.52,25.84-31.4c3.27-13.24-0.47-24.86-11.42-29.57c-13.87-5.96-29.3-1.75-33.99,11.31
	c-3.51,9.76-9.24,11.03-17.59,10.02c-1.49-0.18-3.03,0.12-4.51-0.05c-6.15-0.71-15.97,2.9-17.65-1.8
	c-2.26-6.31,1.82-14.59,5.28-21.49c18.24-36.45,69.59-43.9,100.55-19.05c22.14,17.77,24.52,52.51,5.76,73.14
	c-7.16,7.87-14.75,15.39-22.58,22.6c-7.92,7.29-11.98,16.31-10.74,26.61c1.4,11.57-3.29,14.6-13.58,12.78
	C306.61,429.7,305.07,429.92,303.56,429.92z"/>
<circle class="st3" cx="305.15" cy="468.83" r="24.47"/>
</svg>
